<?xml version="1.0" standalone="no"?>
<!DOCTYPE svg PUBLIC "-//W3C//DTD SVG 20010904//EN"
 "http://www.w3.org/TR/2001/REC-SVG-20010904/DTD/svg10.dtd">
<svg version="1.0" xmlns="http://www.w3.org/2000/svg"
 width="512.000000pt" height="512.000000pt" viewBox="0 0 512.000000 512.000000"
 preserveAspectRatio="xMidYMid meet">

<g transform="translate(0.000000,512.000000) scale(0.100000,-0.100000)"
fill="#000000" stroke="none">
<path d="M1492 4389 c-24 -4 -67 -19 -95 -32 -29 -13 -272 -176 -542 -361
-524 -360 -585 -409 -638 -519 -31 -64 -57 -169 -57 -232 0 -87 30 -180 108
-340 44 -88 92 -175 107 -194 70 -82 194 -93 275 -24 39 32 167 248 198 333
58 160 65 169 719 1004 108 138 166 202 210 235 34 25 62 49 62 52 2 12 -135
69 -188 79 -62 11 -98 11 -159 -1z"/>
<path d="M3462 4389 c-24 -4 -75 -23 -114 -41 l-70 -32 23 -18 c87 -68 134
-119 261 -281 662 -846 660 -844 717 -1009 26 -76 153 -289 191 -321 81 -68
206 -58 274 23 34 41 158 286 185 366 61 182 20 378 -107 516 -39 42 -189 151
-550 399 -273 188 -520 352 -548 365 -86 40 -172 51 -262 33z"/>
<path d="M2080 3923 l0 -81 103 -4 c125 -6 191 -29 285 -101 40 -30 77 -50 93
-50 15 0 51 20 92 50 93 72 159 95 285 101 l102 4 0 81 0 80 -97 -6 c-54 -4
-124 -14 -155 -22 -53 -13 -166 -66 -210 -97 -15 -10 -23 -9 -45 5 -117 74
-210 104 -355 114 l-98 6 0 -80z"/>
<path d="M1525 3113 c-214 -28 -389 -177 -461 -393 -24 -73 -24 -238 1 -335
49 -196 166 -361 341 -484 l62 -43 -23 -52 c-58 -131 -92 -327 -81 -466 21
-259 182 -474 429 -573 139 -56 305 -60 468 -13 214 62 387 62 599 0 114 -33
259 -41 359 -20 90 19 217 80 294 141 99 79 195 231 226 357 39 162 12 402
-64 574 l-23 52 62 43 c175 123 292 288 341 484 25 97 25 262 1 335 -31 93
-78 171 -142 234 -217 218 -565 216 -785 -4 -78 -78 -115 -149 -179 -342 -23
-71 -43 -128 -45 -128 -1 0 -22 11 -46 24 -74 42 -150 56 -299 56 -149 0 -225
-14 -299 -56 -24 -13 -45 -24 -46 -24 -2 0 -22 57 -45 128 -23 70 -58 160 -77
200 -96 205 -340 335 -568 305z m130 -338 c50 -49 15 -135 -55 -135 -41 0 -80
39 -80 80 0 41 39 80 80 80 19 0 40 -9 55 -25z m1920 0 c16 -15 25 -36 25 -55
0 -19 -9 -40 -25 -55 -15 -16 -36 -25 -55 -25 -19 0 -40 9 -55 25 -16 15 -25
36 -25 55 0 19 9 40 25 55 15 16 36 25 55 25 19 0 40 -9 55 -25z"/>
</g>
</svg>
